<?xml version="1.0" standalone="no"?>
<!DOCTYPE svg PUBLIC "-//W3C//DTD SVG 20010904//EN"
 "http://www.w3.org/TR/2001/REC-SVG-20010904/DTD/svg10.dtd">
<svg version="1.0" xmlns="http://www.w3.org/2000/svg"
 width="500.000000pt" height="500.000000pt" viewBox="0 0 500.000000 500.000000"
 preserveAspectRatio="xMidYMid meet">
<metadata>
Created by potrace 1.11, written by Peter Selinger 2001-2013
</metadata>
<g transform="translate(0.000000,500.000000) scale(0.100000,-0.100000)"
fill="#000000" stroke="none">
<path d="M3192 4949 c-101 -9 -141 -22 -209 -65 -115 -73 -172 -223 -137 -361
14 -56 74 -156 103 -175 17 -10 0 -33 -167 -237 -101 -124 -188 -230 -192
-234 -4 -5 -47 21 -96 56 -49 35 -104 72 -121 81 -47 24 -97 21 -130 -8 l-28
-24 1 -295 0 -295 -64 -31 c-35 -18 -65 -31 -66 -29 -27 61 -64 82 -144 82
-124 -1 -177 -6 -204 -20 -15 -8 -37 -14 -50 -14 -13 0 -39 -11 -58 -24 -46
-31 -76 -21 -85 27 -5 24 -19 43 -46 64 -35 27 -46 30 -97 27 -62 -3 -73 -5
-115 -22 -16 -7 -31 -12 -35 -12 -14 0 -149 -70 -167 -87 -11 -11 -40 -33 -65
-50 -61 -41 -107 -96 -136 -161 -26 -57 -30 -92 -14 -122 8 -16 4 -22 -30 -41
-22 -13 -39 -28 -37 -33 2 -6 -11 -28 -30 -49 -18 -21 -45 -62 -60 -91 -22
-45 -38 -61 -100 -101 -40 -26 -73 -51 -73 -56 0 -5 -5 -9 -11 -9 -6 0 -38
-21 -71 -46 -61 -47 -88 -90 -88 -140 0 -36 49 -79 105 -93 47 -12 181 -16
225 -7 64 14 109 19 150 16 115 -6 237 2 299 20 17 5 31 7 31 5 0 -3 10 -1 23
4 21 8 25 4 45 -39 17 -38 32 -53 65 -69 24 -12 50 -21 58 -21 19 0 127 -104
162 -155 43 -65 188 -201 243 -229 28 -14 73 -34 100 -44 59 -21 60 -22 46
-47 -23 -44 -33 -235 -17 -346 3 -21 8 -58 11 -81 15 -113 62 -294 103 -397
31 -77 97 -203 159 -304 l54 -89 -11 -72 c-22 -134 -11 -309 23 -373 17 -32
63 -83 75 -83 5 0 27 19 50 42 l42 41 55 -17 c31 -10 57 -16 59 -14 1 2 28 46
59 98 31 52 61 102 66 110 5 8 40 68 79 133 l71 119 -15 66 c-26 110 -12 271
28 323 8 11 35 19 75 23 35 3 76 13 92 21 16 8 35 15 43 15 20 0 170 -160 202
-214 20 -35 26 -60 30 -137 5 -101 7 -111 25 -179 25 -94 100 -195 193 -259
51 -35 181 -89 225 -95 26 -3 32 2 51 40 18 39 25 44 53 44 43 0 54 8 71 50
27 66 5 242 -54 435 -12 40 -23 108 -25 160 -5 103 -16 169 -49 298 -9 34 -18
69 -20 77 -2 8 -9 31 -14 50 -9 28 -7 41 8 75 11 22 22 58 26 80 7 42 7 306 1
363 -2 18 1 35 7 39 16 10 187 4 207 -7 10 -5 21 -26 25 -47 33 -177 123 -328
184 -308 24 7 69 70 96 135 10 25 21 48 24 52 3 4 26 -11 51 -33 87 -78 148
-93 208 -51 39 28 73 111 79 191 4 56 0 79 -25 148 -31 83 -71 151 -113 189
-13 12 -85 45 -159 74 -74 29 -139 56 -143 60 -5 4 -9 38 -10 74 l-2 67 -45
27 c-25 15 -107 68 -183 117 -112 74 -136 94 -132 110 17 72 16 90 -7 125
l-24 35 25 39 c14 21 26 52 27 70 3 39 -29 92 -67 112 -53 27 -196 22 -286
-10 -34 -12 -43 -12 -43 -2 0 7 24 18 53 26 73 18 195 84 234 126 17 19 39 56
48 82 37 106 61 160 97 222 87 147 105 213 67 251 -19 19 -29 21 -98 16 -42
-3 -107 -15 -145 -27 -38 -12 -76 -23 -85 -25 -9 -3 -26 -7 -38 -11 -13 -3
-23 -4 -23 0 0 3 29 57 64 119 35 61 76 135 91 162 14 28 46 68 70 91 39 37
51 42 109 48 80 8 187 40 232 69 43 28 72 82 68 125 -6 74 -52 137 -228 311
-191 190 -200 197 -284 245 -112 63 -220 99 -335 112 -29 3 -54 7 -57 8 -3 1
-42 -1 -88 -5z m-1070 -2087 c18 -26 54 -71 81 -99 48 -51 49 -53 34 -75 -9
-13 -31 -43 -48 -68 -17 -25 -46 -65 -63 -90 -17 -25 -34 -47 -38 -50 -10 -8
-178 -13 -178 -6 0 3 15 26 34 50 51 67 56 128 17 204 -18 34 -18 35 11 87 27
50 61 145 52 145 -3 0 0 10 7 21 11 21 13 19 35 -25 13 -26 38 -69 56 -94z
m-1188 89 c3 -4 -6 -6 -19 -3 -14 2 -25 6 -25 8 0 8 39 4 44 -5z"/>
</g>
</svg>
