<?xml version="1.0" standalone="no"?>
<!DOCTYPE svg PUBLIC "-//W3C//DTD SVG 20010904//EN"
 "http://www.w3.org/TR/2001/REC-SVG-20010904/DTD/svg10.dtd">
<svg version="1.0" xmlns="http://www.w3.org/2000/svg"
 width="260.000000pt" height="260.000000pt" viewBox="0 0 260.000000 260.000000"
 preserveAspectRatio="xMidYMid meet">
<metadata>
Created by potrace 1.11, written by Peter Selinger 2001-2013
</metadata>
<g transform="translate(0.000000,260.000000) scale(0.100000,-0.100000)"
fill="#000000" stroke="none">
<path d="M1212 1709 c-133 -17 -234 -63 -326 -149 -108 -102 -168 -220 -201
-394 -16 -86 -16 -90 2 -103 17 -13 18 -9 25 71 22 250 170 442 403 522 188
64 410 18 567 -116 102 -88 182 -253 195 -405 4 -48 10 -74 17 -72 37 12 -4
216 -67 341 -113 221 -352 339 -615 305z"/>
<path d="M1343 1585 c-39 -16 -51 -52 -33 -96 12 -28 11 -32 -16 -62 -16 -18
-32 -36 -36 -41 -4 -5 -18 -1 -33 8 -14 10 -32 15 -38 12 -8 -3 -6 -5 3 -5 8
-1 26 -10 39 -20 l24 -19 44 54 c40 49 43 56 29 70 -22 21 -20 57 3 78 20 18
70 23 112 12 17 -5 19 -4 9 2 -29 17 -75 20 -107 7z"/>
<path d="M1515 1520 c27 -27 51 -50 54 -50 3 0 -17 23 -44 50 -27 28 -51 50
-54 50 -3 0 17 -22 44 -50z"/>
<path d="M1451 1365 c-17 -30 -38 -55 -46 -55 -8 0 -15 -5 -15 -10 0 -6 17 -2
38 8 44 23 92 35 92 25 0 -5 -13 -32 -29 -61 -16 -28 -25 -50 -20 -46 16 9 60
104 54 115 -4 5 -22 7 -42 3 -34 -6 -35 -6 -23 17 7 13 19 32 28 42 8 9 10 17
5 17 -6 0 -25 -25 -42 -55z"/>
<path d="M1173 1350 c0 -25 2 -35 4 -22 2 12 2 32 0 45 -2 12 -4 2 -4 -23z"/>
<path d="M1180 1285 c-8 -10 -25 -14 -49 -11 -20 2 -26 1 -13 -1 12 -2 22 -7
22 -10 0 -8 -33 -66 -50 -86 -8 -10 -10 -18 -5 -17 23 5 25 -2 10 -30 -9 -16
-12 -30 -9 -30 4 0 -3 -12 -17 -27 -17 -20 -18 -23 -3 -10 26 22 34 22 35 0 0
-11 3 -13 6 -5 8 20 43 15 43 -7 0 -39 -19 -71 -42 -71 -17 0 -19 -3 -9 -9 9
-6 15 -32 16 -75 2 -48 11 -83 33 -129 19 -42 28 -73 25 -94 -12 -80 50 -91
93 -17 18 30 25 53 21 72 -7 36 9 62 38 62 27 0 69 -46 60 -68 -9 -25 25 -80
61 -97 32 -15 35 -15 55 4 16 15 20 27 15 48 -28 124 -36 180 -34 231 3 50 4
53 28 50 17 -2 26 -10 28 -25 2 -12 10 -27 19 -34 13 -11 17 -10 28 5 11 14
18 15 33 7 15 -8 23 -7 30 2 32 39 10 99 -43 118 -20 8 -35 20 -35 29 0 8 -16
24 -35 34 -32 18 -39 31 -38 73 1 7 -3 10 -8 7 -5 -3 -6 -16 -3 -30 5 -19 2
-24 -12 -24 -13 0 -7 -8 19 -22 59 -34 46 -53 -16 -22 l-32 15 28 -25 c15 -15
39 -26 53 -26 26 0 33 -27 12 -48 -17 -17 -69 -15 -98 5 l-25 16 23 -24 c28
-32 30 -79 3 -79 -27 0 -71 56 -71 90 0 24 5 29 28 33 l27 4 -32 8 c-22 5 -33
13 -33 26 0 31 18 67 37 72 12 3 13 5 3 6 -27 2 -40 -15 -48 -59 -7 -41 -10
-45 -45 -53 -20 -5 -37 -13 -37 -17 0 -4 -8 -6 -19 -3 -13 3 -20 -2 -24 -18
-5 -17 -9 -20 -20 -11 -7 6 -23 9 -36 5 -20 -5 -21 -3 -15 23 10 46 35 94 55
107 21 15 15 26 -26 49 -37 20 -46 69 -17 90 18 13 37 38 29 38 -3 0 -10 -7
-17 -15z m-14 -170 c-24 -37 -42 -31 -43 13 -2 53 14 68 39 37 19 -24 19 -27
4 -50z m458 -106 c19 -15 26 -30 26 -55 0 -38 -13 -43 -42 -17 -18 16 -19 16
-25 -5 -6 -26 -21 -20 -34 15 -6 17 -5 32 6 54 18 34 33 36 69 8z m-266 -34
c9 -35 20 -51 45 -65 39 -23 56 -55 67 -125 4 -27 13 -65 18 -82 8 -26 7 -36
-4 -48 -29 -29 -84 20 -84 75 0 11 -12 34 -27 50 -26 29 -31 31 -73 24 -25 -4
-40 -9 -34 -11 17 -6 5 -91 -19 -131 -27 -45 -51 -39 -55 13 -2 22 -14 67 -27
101 -14 34 -27 86 -31 116 -6 51 -5 56 15 63 12 3 19 10 17 14 -3 4 7 6 22 6
15 -1 32 3 38 7 16 11 86 36 104 37 11 1 20 -15 28 -44z"/>
<path d="M926 1249 c-21 -16 -24 -24 -15 -30 7 -4 18 -4 25 1 6 6 15 6 19 2 5
-4 5 -2 1 5 -4 7 -14 10 -24 7 -11 -4 -8 2 8 15 33 27 20 27 -14 0z"/>
<path d="M1407 1196 c-4 -10 1 -12 14 -9 23 6 24 9 5 16 -8 3 -17 0 -19 -7z"/>
<path d="M1034 1128 l-19 -23 23 19 c21 18 27 26 19 26 -2 0 -12 -10 -23 -22z"/>
<path d="M1293 1123 c9 -2 23 -2 30 0 6 3 -1 5 -18 5 -16 0 -22 -2 -12 -5z"/>
<path d="M810 1105 c-11 -13 -11 -18 0 -28 10 -9 11 -9 6 1 -4 7 -2 19 4 27 7
8 10 15 7 15 -2 0 -10 -7 -17 -15z"/>
<path d="M1201 1090 c-12 -36 -9 -38 13 -6 9 14 12 27 7 30 -5 3 -14 -8 -20
-24z"/>
<path d="M988 1097 c-9 -7 -13 -18 -10 -24 5 -7 12 -2 19 13 6 13 10 24 10 24
-1 0 -10 -6 -19 -13z"/>
<path d="M868 1073 c7 -3 16 -2 19 1 4 3 -2 6 -13 5 -11 0 -14 -3 -6 -6z"/>
<path d="M908 1073 c6 -2 18 -2 25 0 6 3 1 5 -13 5 -14 0 -19 -2 -12 -5z"/>
<path d="M1010 1050 c8 -5 20 -10 25 -10 6 0 3 5 -5 10 -8 5 -19 10 -25 10 -5
0 -3 -5 5 -10z"/>
<path d="M1078 1023 c-15 -14 -19 -14 -35 -2 -10 7 -7 1 6 -14 14 -15 27 -27
29 -27 3 0 2 3 -1 7 -4 3 0 17 8 30 18 27 16 29 -7 6z"/>
<path d="M1560 624 c-80 -47 -134 -83 -120 -79 74 21 136 51 187 89 50 37 94
77 82 75 -2 0 -69 -38 -149 -85z"/>
</g>
</svg>
